/* XPM */
static char *adbab8c144f847b59f9ad0c02fd52d5aPRrQwxp7j6JOvCcz[] = {
/* columns rows colors chars-per-pixel */
"32 32 5 1 ",
"  c None",
". c #0F380F",
"X c #9BBC0F",
"o c #306230",
"O c #8BAC0F",
/* pixels */
"                                ",
"                                ",
"               ..               ",
"              .XX.              ",
"              .XX.              ",
"            ...XX...            ",
"          ..oo.XX.oo..          ",
"        ..oooo.XX.oooo..        ",
"      ..o.OooooooooooO.o..      ",
"     .ooo.OOOOOOOOOOOO.ooo.     ",
"     .oooooOOOOOOOOOOooooo.     ",
"      .oooooooooooooooooo.      ",
"       ...oooooooooooo...       ",
"         ..............         ",
"         .OOXXXXXXXXXX.         ",
"         .OXXXXXXXX.XX.         ",
"         .OXXXXXXXX.XX.         ",
"         .OOXXXXXXX.XXo.        ",
"         .OOOXXXXXXXXXX.        ",
"          .OOOXXXXXXXXX.        ",
"           .OOOOOOOOXX.         ",
"            ..OOOO....          ",
"             .OOOO.             ",
"          . .XXXXXX.            ",
"         .X.XXXXXXX.            ",
"         .O.XOXXXXX.            ",
"          ..XOXXXXX.            ",
"            .OXXXX.             ",
"             .XXXX.             ",
"              ....              ",
"                                ",
"                                "
};
