/* XPM */
static char *c85d517a313e4233a70594da273a1397GyUxu8u7HzVGSzl5[] = {
/* columns rows colors chars-per-pixel */
"32 32 4 1 ",
"  c #9BBC0F",
". c #0F380F",
"X c #306230",
"o c #8BAC0F",
/* pixels */
"                                ",
"                                ",
"               ..               ",
"              .  .              ",
"              .  .              ",
"            ...  ...            ",
"          ..XX.  .XX..          ",
"        ..XXXX.  .XXXX..        ",
"      ..X.oXXXXXXXXXXo.X..      ",
"     .XXX.oooooooooooo.XXX.     ",
"     .XXXXXooooooooooXXXXX.     ",
"      .XXXXXXXXXXXXXXXXXX.      ",
"       ...XXXXXXXXXXXX...       ",
"         ..............         ",
"         .oo          .         ",
"         .o        .  .         ",
"         .o        .  .         ",
"         .oo       .  X.        ",
"         .ooo          .        ",
"          .ooo         .        ",
"           .oooooooo  .         ",
"            ..oooo....          ",
"             .oooo.             ",
"          . .      .            ",
"         . .       .            ",
"         .o. o     .           o",
"          .. o     .           o",
"            .o    .            o",
"             .    .            o",
"              ....             o",
"                               o",
"                              oo"
};
