/* XPM */
static char *_c38da1cd3184938caa29eb2ecae15baQerN3kQx6vE7BqcF[] = {
/* columns rows colors chars-per-pixel */
"32 32 4 1 ",
"  c #9BBC0F",
". c #0F380F",
"X c #306230",
"o c #8BAC0F",
/* pixels */
"                                ",
"                                ",
"                                ",
"                                ",
"               ..               ",
"              .  .              ",
"              .  .              ",
"            ...  ...            ",
"          ..XX.  .XX..          ",
"        ..XXXX.  .XXXX..        ",
"      ..X.oXXXXXXXXXXo.X..      ",
"     .XXX.oooooooooooo.XXX.     ",
"     .XXXXXooooooooooXXXXX.     ",
"      .XXXXXXXXXXXXXXXXXX.      ",
"       ...XXXXXXXXXXXX...       ",
"         ..............         ",
"         .          oo.         ",
"         .  .        o.         ",
"         .  .        o.         ",
"        .X  .      ooo.         ",
"        .         oooo.         ",
"        .         ooo.          ",
"         .  oooooooo.           ",
"          ....oooo..            ",
"             .oooo.             ",
"            .ooo   . .          ",
"            .oo     . .         ",
"            .o    o .o.         ",
"            .o    o ..          ",
"             .    o.            ",
"             .    .             ",
"              ....              "
};
