/* XPM */
static char *f79de47a954a4dedc3c2451163f4e613lZ3mf74fxrldz3Ie[] = {
/* columns rows colors chars-per-pixel */
"32 32 4 1 ",
"  c #9BBC0F",
". c #0F380F",
"X c #306230",
"o c #8BAC0F",
/* pixels */
"                                ",
"                                ",
"                                ",
"            ..    ..            ",
"           .  .  .  .           ",
"           .  .  .  .           ",
"           .  ....  .           ",
"          ..  .XX.  ..          ",
"        ..X. XXXXXX .X..        ",
"      ..X.oXXXXXXXXXXo.X..      ",
"     .XXX.oooooooooooo.XXX.     ",
"     .XXXXXooooooooooXXXXX.     ",
"      .XXXXXXXXXXXXXXXXXX.      ",
"       ...XXXXXXXXXXXX...       ",
"        . ............ .        ",
"       .o              o.       ",
"       .o    .     .   o.       ",
"       .o    .     .   o.       ",
"       .o    .     .   o.       ",
"       .o   oo  X  oo  o.       ",
"        .o  oo . . oo o.        ",
"         .oo        oo.         ",
"           ..o    o..           ",
"          .          .          ",
"          . o      o .          ",
"         .  o      o  .         ",
"         .  o      o  .         ",
"         .  o      o  .         ",
"          ..        ..          ",
"           . o....o .           ",
"           . .    . .           ",
"           ..      ..           "
};
