/* XPM */
static char *e586735531ed4e75d6843c490bf27d1dvTBC90M4MvhuPQBs[] = {
/* columns rows colors chars-per-pixel */
"32 32 3 1 ",
"  c #9BBC0F",
". c #0F380F",
"X c #8BAC0F",
/* pixels */
"                                ",
"             ...............    ",
"            .  .......X.X.X...  ",
"          ..         ....X.X.X. ",
"         .              ....X.X.",
"         .                . . . ",
"        .     ....              ",
"       .     .......            ",
"       .    .........           ",
"      .    ..........           ",
"    ..     ...........          ",
"  ..X. .  ............          ",
" ..XXX.X. ............          ",
" .X.X.X.X.............          ",
"  . .X.X...............         ",
"     .X.X..............         ",
"      .X...............         ",
"   . .X................         ",
"    . .................         ",
"      .................         ",
"      .................         ",
"      ..X.X.X.X.X.....X.        ",
"      .X.X.X.X.X.X...X.X.       ",
"  .    . .X.X.X.X...X.X.X.      ",
"   .      ......... .X.X.X.     ",
"  .X.                .X.X.X. .  ",
"   .X.                . .X.X.X. ",
"    .X. . . . . . . .    . . .  ",
"     .X.X.X. . . . .X.        . ",
"      . . .         .           ",
"                     .          ",
"                                "
};
