/* XPM */
static char *bc709230989a46dc843bfc94eacbcfd84jIJhUDRtGha2QBs[] = {
/* columns rows colors chars-per-pixel */
"32 32 2 1 ",
"  c #0F380F",
". c #9BBC0F",
/* pixels */
"....                        ....",
"..                            ..",
".     ....................     .",
".   ........................   .",
"   ..........................   ",
"   ..........................   ",
"  ............................  ",
"  ............................  ",
"  .............   ............  ",
"  ..........        ..........  ",
"  ..........         .........  ",
"  ..........  ...    .........  ",
"  ................   .........  ",
"  ...............    .........  ",
"  ............      ..........  ",
"  ............      ..........  ",
"  ............       .........  ",
"  ...............    .........  ",
"  ................    ........  ",
"  ................    ........  ",
"  .......... ....    .........  ",
"  ..........         .........  ",
"  .........         ..........  ",
"  ...........      ...........  ",
"  ............................  ",
"  ............................  ",
"   ..........................   ",
"   ..........................   ",
".   ........................   .",
".     ....................     .",
"..                            ..",
"....                        ...."
};
