/* XPM */
static char *_2e4867206a242d1d922a8253ed1c2c2ksSNtA1UqZKfJbny[] = {
/* columns rows colors chars-per-pixel */
"32 32 2 1 ",
"  c #0F380F",
". c #9BBC0F",
/* pixels */
"....                        ....",
"..                            ..",
".     ....................     .",
".   ........................   .",
"   ..........................   ",
"   ..........................   ",
"  ............................  ",
"  ............................  ",
"  ............................  ",
"  ...........        .........  ",
"  ...........        .........  ",
"  ..........         .........  ",
"  ..........   ...............  ",
"  ..........   ...............  ",
"  ..........       ...........  ",
"  ..........        ..........  ",
"  .......... ..      .........  ",
"  ...............    .........  ",
"  ................   .........  ",
"  ................   .........  ",
"  ...............    .........  ",
"  .........          .........  ",
"  .........         ..........  ",
"  ..........      ............  ",
"  ............................  ",
"  ............................  ",
"   ..........................   ",
"   ..........................   ",
".   ........................   .",
".     ....................     .",
"..                            ..",
"....                        ...."
};
