/* XPM */
static char *e8ca457e96c1484fb392c4ee2007fd6dSix7qq1xjUaKTAuP[] = {
/* columns rows colors chars-per-pixel */
"32 32 2 1 ",
"  c #0F380F",
". c #9BBC0F",
/* pixels */
"....                        ....",
"..                            ..",
".     ....................     .",
".   ........................   .",
"   ..........................   ",
"   ..........................   ",
"  ............................  ",
"  ............................  ",
"  ................ ...........  ",
"  ............      ..........  ",
"  ...........       ..........  ",
"  ..........     .............  ",
"  .........    ...............  ",
"  .........   .. .............  ",
"  .........         ..........  ",
"  ........          ..........  ",
"  ........     ..    .........  ",
"  ........    ....   .........  ",
"  ........    ....   .........  ",
"  ........    ....   .........  ",
"  .........   ...    .........  ",
"  .........         ..........  ",
"  ..........        ..........  ",
"  ...........     ............  ",
"  ............................  ",
"  ............................  ",
"   ..........................   ",
"   ..........................   ",
".   ........................   .",
".     ....................     .",
"..                            ..",
"....                        ...."
};
