/* XPM */
static char *d3cbe331356e4070b23b6fb2026c3493p49pibyKYgGpkmED[] = {
/* columns rows colors chars-per-pixel */
"32 32 2 1 ",
"  c #0F380F",
". c #9BBC0F",
/* pixels */
"....                        ....",
"..                            ..",
".     ....................     .",
".   ........................   .",
"   ..........................   ",
"   ..........................   ",
"  ............................  ",
"  ............................  ",
"  ............................  ",
"  .........          .........  ",
"  .........          .........  ",
"  .........          .........  ",
"  ...............    .........  ",
"  ...............   ..........  ",
"  ..............    ..........  ",
"  ..............   ...........  ",
"  .............    ...........  ",
"  .............   ............  ",
"  ............    ............  ",
"  ............   .............  ",
"  ...........    .............  ",
"  ...........   ..............  ",
"  ..........    ..............  ",
"  ..........   ...............  ",
"  ............................  ",
"  ............................  ",
"   ..........................   ",
"   ..........................   ",
".   ........................   .",
".     ....................     .",
"..                            ..",
"....                        ...."
};
