/* XPM */
static char *_9e34d7f00a2466bf8d64d94211cb1dcZDYQwvrZx55opn4A[] = {
/* columns rows colors chars-per-pixel */
"32 32 2 1 ",
"  c #0F380F",
". c #9BBC0F",
/* pixels */
"....                        ....",
"..                            ..",
".     ....................     .",
".   ........................   .",
"   ..........................   ",
"   ..........................   ",
"  ............................  ",
"  ............................  ",
"  ..............  ............  ",
"  ...........       ..........  ",
"  ..........         .........  ",
"  ..........   ...   .........  ",
"  ..........   ...    ........  ",
"  ..........   ...   .........  ",
"  ..........         .........  ",
"  ...........       ..........  ",
"  ...........        .........  ",
"  ..........    .     ........  ",
"  .........    ...    ........  ",
"  .........    ....   ........  ",
"  .........    ...    ........  ",
"  ..........          ........  ",
"  ..........         .........  ",
"  ............     ...........  ",
"  ............................  ",
"  ............................  ",
"   ..........................   ",
"   ..........................   ",
".   ........................   .",
".     ....................     .",
"..                            ..",
"....                        ...."
};
