/* XPM */
static char *_d7a74b57e5c415fd395f005aa840f418J20w83neCbj32eC[] = {
/* columns rows colors chars-per-pixel */
"32 32 2 1 ",
"  c #0F380F",
". c #9BBC0F",
/* pixels */
"....                        ....",
"..                            ..",
".     ....................     .",
".   ........................   .",
"   ..........................   ",
"   ..........................   ",
"  ............................  ",
"  ............................  ",
"  .............  .............  ",
"  ..........       ...........  ",
"  .........         ..........  ",
"  .........    ..    .........  ",
"  ........    ....   .........  ",
"  ........    ....   .........  ",
"  ........    ....   .........  ",
"  .........   ...    .........  ",
"  .........          .........  ",
"  ..........         .........  ",
"  ............  .    .........  ",
"  ...............   ..........  ",
"  .............     ..........  ",
"  ..........       ...........  ",
"  ..........      ............  ",
"  ..........    ..............  ",
"  ............................  ",
"  ............................  ",
"   ..........................   ",
"   ..........................   ",
".   ........................   .",
".     ....................     .",
"..                            ..",
"....                        ...."
};
