/* XPM */
static char *_5d05754410f4793875847d050cbbea0Gng5nAgw9bDogFZB[] = {
/* columns rows colors chars-per-pixel */
"32 32 3 1 ",
"  c #9BBC0F",
". c #0F380F",
"X c #8BAC0F",
/* pixels */
"                   ...    ..    ",
"                  ..X.  ..X.    ",
"                 .X.X.  ....    ",
"                 ..X.. ....     ",
"                 ..... ...      ",
"                  .X.X...   ....",
"                  ...X..  ..... ",
"                  ..X..X....... ",
"                   .X.X....     ",
"                   ...X..XX.... ",
"                   ....X.....   ",
"                   .........    ",
"               ............     ",
"              ..XXX..           ",
"             ..XXXXX.           ",
"             .XXXXXXX.          ",
"             .XXX.XXX.          ",
"            .XXXXXX.X.          ",
"           .XXXXXXXX.           ",
"         ..XXXXXXXXX.           ",
"       ..XXX.XXX.X..            ",
"     ..XXXXXXXXXX.              ",
"    ..XXXXXX.XX..               ",
"   ..XXXXXXXXX.                 ",
"   .XXXXX.XX..                  ",
"  .XX........                   ",
"  .XX...                        ",
"  .X.                           ",
" .X.                            ",
" ..                             ",
" .                              ",
".                               "
};
