/* XPM */
static char *_8844fc142dc4eeeb3e67a5831c21e88gIRlW8V8OCy0NSyf[] = {
/* columns rows colors chars-per-pixel */
"32 32 3 1 ",
"  c #9BBC0F",
". c #0F380F",
"X c #8BAC0F",
/* pixels */
"       . . . . . . . . . . .    ",
"        .X.X.X.X. . . . . . .   ",
" . . . .X.X.X.X.             . .",
"  .X.X.X.X. . . .             . ",
"   .X.X.X.         . .     . .  ",
"    .X.....       .   .     . . ",
"     .X.X.X.       ...   . .    ",
".     .X.X.X.             . .   ",
" . . .X.X.X.X.         . .      ",
".X.X.X.X. . . .         .X.     ",
"X.X.X.X.             . .X.X. .  ",
".X. . . .             .X.X.X.X. ",
"X.               . . .X.X.X.X.X.",
". .               .X.X.....X.X. ",
"          ..   . .X.X.X.X.X.X.X.",
"         .XX.   .X.X.X.X.X. . . ",
"          ..     .X.X.X.X.      ",
"                  . . . . .     ",
"               . .              ",
"                .X.             ",
"                 .X. .          ",
"                  .X.X.         ",
"   . . . . .     .X.X.X. . . . .",
".   .X.X.X.X.     . .X.X.X.X.X. ",
" . .X.X.X.X.X. .     .X.X.X.X.X.",
".X.X.X.X...X.X.X.     . . . .X. ",
" .X.X...X.X.X.X.X. .         .X.",
"  .X.X.X...X.X.X. . .   ..    . ",
"   .X.X.X.X.X.X.       .XX.     ",
"    .X.X.X.X.X.X.       ..      ",
"   .X.X.X.X.X.X.X. . . .X. .    ",
"    . . . .X.X.X.X. . . . . .   "
};
