/* XPM */
static char *fbd79bb8c0884573b465b9c698b20511LZFck0kO8kf5rFmK[] = {
/* columns rows colors chars-per-pixel */
"32 32 3 1 ",
"  c #9BBC0F",
". c #0F380F",
"X c #8BAC0F",
/* pixels */
"                                ",
"           ...........          ",
"        ...XXXXXXXXXX..         ",
"        ..X.XXXXXXXXXXX.        ",
"        .X.X.XXXXXXXXXX.        ",
"        .XXXXXXXXXXXXXX..       ",
"        .XXXXXXXXXXXXXX.X..     ",
"     ...XXXXXXXXXXXXXXXX.XX.    ",
"   ....X.XXXX.X.XXXXXXX.XXX.    ",
"  ..X.XXXXXXXX.X.XXXXXX..X.     ",
" ..X.X.XXXX.X.XXX.X........     ",
" .XXXXXXXXXX.X.XX....X.X......  ",
" .XXXXXXXXXXXXXXXXX....X....XX. ",
" .XXXXXXXXXXXXXXXXXX.X.....X.X. ",
" .XXXXXXXXX.XXXXXXXXX.X.....XX. ",
" .X.XXXXXXXX.XXXXXXXXX.......X. ",
" .XX.XXXX.X.XXXXXXX.X.X...X.XX..",
" ...XXXXXX...XXXX.X....X...X.X..",
"  .X.XX.X.X.XXXXXX..........XX.X",
"  ..XXXX.X...XX.X.X........X...X",
" ....XX.X.X...............XX..XX",
" ....XX..X....X...X..X...X......",
"  ....X.................X...X.. ",
". .....X...X.....X.X...X.X.X... ",
" ..X....X.........X...X.X.X.... ",
"  ..XX.............X..........  ",
"  ..XX.......X................  ",
"  ...........X..XX...........   ",
"    .............X..........    ",
"         ...........X.          ",
"      ................          ",
"                                "
};
